<?xml version="1.0" encoding="UTF-8" standalone="no"?>
<!-- Created with Inkscape (http://www.inkscape.org/) -->

<svg
   version="1.1"
   id="svg2"
   width="137.71733"
   height="107.57987"
   viewBox="0 0 137.71733 107.57987"
   xmlns="http://www.w3.org/2000/svg"
   xmlns:svg="http://www.w3.org/2000/svg">
  <defs
     id="defs6">
    <clipPath
       clipPathUnits="userSpaceOnUse"
       id="clipPath24">
      <path
         d="M 0,80.685 H 103.288 V 0 H 0 Z"
         id="path22" />
    </clipPath>
  </defs>
  <g
     id="g8"
     transform="matrix(1.3333333,0,0,-1.3333333,0,107.57987)">
    <g
       id="g18">
      <g
         id="g20"
         clip-path="url(#clipPath24)">
        <g
           id="g26"
           transform="translate(50.403,26.7534)">
          <path
             d="m 0,0 c 0,-0.337 -0.273,-0.61 -0.611,-0.61 h -1.934 c -0.337,0 -0.611,0.273 -0.611,0.61 v 1.935 c 0,0.337 0.274,0.61 0.611,0.61 h 1.934 C -0.273,2.545 0,2.272 0,1.935 Z"
             style="fill:#37a636;fill-opacity:1;fill-rule:nonzero;stroke:none"
             id="path28" />
        </g>
        <g
           id="g30"
           transform="translate(54.1774,26.7534)">
          <path
             d="m 0,0 c 0,-0.337 -0.274,-0.61 -0.612,-0.61 h -1.933 c -0.339,0 -0.612,0.273 -0.612,0.61 v 1.935 c 0,0.337 0.273,0.61 0.612,0.61 h 1.933 C -0.274,2.545 0,2.272 0,1.935 Z"
             style="fill:#37a636;fill-opacity:1;fill-rule:nonzero;stroke:none"
             id="path32" />
        </g>
        <g
           id="g34"
           transform="translate(50.403,23.1787)">
          <path
             d="m 0,0 c 0,-0.338 -0.273,-0.611 -0.611,-0.611 h -1.934 c -0.337,0 -0.611,0.273 -0.611,0.611 v 1.934 c 0,0.338 0.274,0.61 0.611,0.61 h 1.934 C -0.273,2.544 0,2.272 0,1.934 Z"
             style="fill:#37a636;fill-opacity:1;fill-rule:nonzero;stroke:none"
             id="path36" />
        </g>
        <g
           id="g38"
           transform="translate(54.1774,23.1787)">
          <path
             d="m 0,0 c 0,-0.338 -0.274,-0.611 -0.612,-0.611 h -1.933 c -0.339,0 -0.612,0.273 -0.612,0.611 v 1.934 c 0,0.338 0.273,0.61 0.612,0.61 h 1.933 C -0.274,2.544 0,2.272 0,1.934 Z"
             style="fill:#37a636;fill-opacity:1;fill-rule:nonzero;stroke:none"
             id="path40" />
        </g>
        <g
           id="g42"
           transform="translate(51.9196,45.1357)">
          <path
             d="m 0,0 c -0.71,0.692 -1.843,0.692 -2.554,0 l -14.683,-14.283 c -0.356,-0.344 -0.555,-0.817 -0.555,-1.312 v -6.165 c 1.152,-0.87 2.377,-1.651 3.661,-2.333 v 7.725 l 12.855,12.502 12.853,-12.502 v -7.725 c 1.285,0.682 2.51,1.463 3.662,2.333 v 6.165 c 0,0.495 -0.2,0.968 -0.554,1.312 z"
             style="fill:#1a64b7;fill-opacity:1;fill-rule:nonzero;stroke:none"
             id="path44" />
        </g>
        <g
           id="g46"
           transform="translate(35.6803,38.3906)">
          <path
             d="m 0,0 c -0.068,-0.101 -0.172,-0.168 -0.291,-0.19 -0.027,-0.005 -0.056,-0.008 -0.084,-0.008 -0.217,0 -0.403,0.155 -0.444,0.369 -0.022,0.12 0.003,0.24 0.07,0.339 0.068,0.1 0.173,0.168 0.291,0.19 0.028,0.005 0.057,0.008 0.085,0.008 0.217,0 0.403,-0.155 0.444,-0.369 C 0.093,0.22 0.068,0.1 0,0 M 2.721,-2.377 0.496,-0.268 C 0.625,-0.053 0.675,0.196 0.629,0.444 0.537,0.925 0.115,1.275 -0.373,1.275 -0.436,1.275 -0.501,1.269 -0.563,1.257 -0.83,1.207 -1.061,1.055 -1.217,0.83 -1.37,0.605 -1.427,0.334 -1.376,0.067 c 0.091,-0.482 0.512,-0.831 1.001,-0.831 0.064,0 0.128,0.006 0.191,0.017 0.092,0.017 0.18,0.053 0.263,0.094 l 2.385,-2.261 c 0.053,-0.051 0.123,-0.078 0.194,-0.078 0.036,0 0.072,0.007 0.106,0.021 l 0.435,0.175 1.072,1.042 z"
             style="fill:#1a64b7;fill-opacity:1;fill-rule:nonzero;stroke:none"
             id="path48" />
        </g>
        <g
           id="g50"
           transform="translate(73.903,32.8955)">
          <path
             d="m 0,0 c -0.25,0 -0.453,0.203 -0.453,0.453 0,0.25 0.203,0.452 0.453,0.452 0.249,0 0.452,-0.202 0.452,-0.452 C 0.452,0.203 0.249,0 0,0 m 0,1.472 c -0.562,0 -1.02,-0.457 -1.02,-1.019 0,-0.053 0.007,-0.103 0.016,-0.154 l -2.624,-1.547 c -0.088,-0.053 -0.153,-0.139 -0.177,-0.24 l -0.506,-2.181 -1.962,-0.893 v -1.453 l 0.576,0.262 1.048,-0.814 c 0.116,-0.09 0.258,-0.138 0.405,-0.138 h 0.75 c 0.413,0.427 0.811,0.869 1.196,1.322 h -1.72 l -0.32,0.248 3.461,1.575 c 0.475,0.665 0.918,1.352 1.332,2.058 l -3.898,-1.773 0.338,1.459 2.485,1.465 c 0.172,-0.134 0.386,-0.215 0.62,-0.215 0.561,0 1.02,0.457 1.02,1.019 0,0.562 -0.459,1.019 -1.02,1.019"
             style="fill:#1a64b7;fill-opacity:1;fill-rule:nonzero;stroke:none"
             id="path52" />
        </g>
        <g
           id="g54"
           transform="translate(52.4743,72.0405)">
          <path
             d="m 0,0 c 0.249,0 0.452,-0.204 0.452,-0.454 0,-0.249 -0.203,-0.452 -0.452,-0.452 -0.25,0 -0.452,0.203 -0.452,0.452 C -0.452,-0.204 -0.25,0 0,0 m 4.104,-0.991 c 0.25,0 0.453,-0.203 0.453,-0.452 0,-0.25 -0.203,-0.453 -0.453,-0.453 -0.25,0 -0.453,0.203 -0.453,0.453 0,0.249 0.203,0.452 0.453,0.452 m 7.222,-4.001 c 0.25,0 0.453,-0.204 0.453,-0.453 0,-0.25 -0.203,-0.453 -0.453,-0.453 -0.249,0 -0.452,0.203 -0.452,0.453 0,0.249 0.203,0.453 0.452,0.453 m 7.243,-5.05 c 0.545,0 0.988,-0.443 0.988,-0.988 0,-0.545 -0.443,-0.989 -0.988,-0.989 -0.545,0 -0.988,0.444 -0.988,0.989 0,0.545 0.443,0.988 0.988,0.988 m -18.947,8.644 v -13.343 c 0,-0.114 0.051,-0.222 0.14,-0.293 l 2.174,-1.77 -1.575,-3.646 c -0.099,-0.233 -0.06,-0.5 0.104,-0.692 l 2.58,-3.022 -2.202,-3.441 1.382,-1.345 6.934,10.842 3.053,-0.962 c 0.065,-0.021 0.133,-0.031 0.198,-0.031 0.194,0 0.381,0.084 0.509,0.239 l 5.13,6.168 c 0.164,-0.052 0.34,-0.08 0.52,-0.08 0.961,0 1.743,0.783 1.743,1.744 0,0.238 -0.047,0.465 -0.134,0.673 -0.181,0.241 -0.367,0.478 -0.555,0.714 -0.293,0.223 -0.657,0.357 -1.054,0.357 -0.962,0 -1.743,-0.782 -1.743,-1.744 0,-0.296 0.074,-0.575 0.205,-0.82 l -4.845,-5.826 -2.289,0.721 6.721,10.507 c -0.471,0.427 -0.955,0.838 -1.455,1.232 L 3.789,-23 l -2.051,2.403 2.734,6.33 h 2.407 c 0.141,0 0.268,0.078 0.334,0.201 l 4.022,7.611 c 0.031,-0.004 0.061,-0.01 0.091,-0.01 0.563,0 1.02,0.457 1.02,1.02 0,0.562 -0.457,1.019 -1.02,1.019 -0.561,0 -1.018,-0.457 -1.018,-1.019 0,-0.257 0.097,-0.488 0.255,-0.667 L 6.651,-13.511 H 4.798 l 5.009,11.597 c -0.4,0.186 -0.802,0.363 -1.212,0.531 l -6.347,-14.7 -1.87,1.521 v 2.778 l 1.663,0.43 c 0.138,0.036 0.243,0.145 0.274,0.283 l 1.926,8.622 c 0.497,0.068 0.882,0.491 0.882,1.006 0,0.562 -0.457,1.019 -1.019,1.019 -0.562,0 -1.02,-0.457 -1.02,-1.019 0,-0.339 0.169,-0.639 0.425,-0.825 l -1.881,-8.413 -1.25,-0.322 v 9.605 c 0.374,0.15 0.642,0.517 0.642,0.944 0,0.563 -0.459,1.02 -1.02,1.02 -0.562,0 -1.02,-0.457 -1.02,-1.02 0,-0.427 0.267,-0.794 0.642,-0.944"
             style="fill:#1a64b7;fill-opacity:1;fill-rule:nonzero;stroke:none"
             id="path56" />
        </g>
        <g
           id="g58"
           transform="translate(75.8083,44.876)">
          <path
             d="m 0,0 c 0.544,0 0.988,-0.444 0.988,-0.988 0,-0.546 -0.444,-0.989 -0.988,-0.989 -0.546,0 -0.988,0.443 -0.988,0.989 C -0.988,-0.444 -0.546,0 0,0 m -7.535,-10.784 v 2.531 l 6.753,5.708 c 0.235,-0.12 0.5,-0.188 0.782,-0.188 0.961,0 1.743,0.783 1.743,1.745 0,0.961 -0.782,1.743 -1.743,1.743 -0.962,0 -1.744,-0.782 -1.744,-1.743 0,-0.197 0.033,-0.384 0.094,-0.56 l -6.974,-5.893 c -0.147,-0.126 -0.233,-0.31 -0.233,-0.505 v -3.708 l -1.255,-0.826 1.237,-1.204 c 0.049,-0.048 0.096,-0.099 0.14,-0.151 l 9.953,6.551 c 0.254,0.875 0.466,1.769 0.633,2.678 z"
             style="fill:#1a64b7;fill-opacity:1;fill-rule:nonzero;stroke:none"
             id="path60" />
        </g>
        <g
           id="g62"
           transform="translate(30.2555,61.9985)">
          <path
             d="m 0,0 c 0.545,0 0.987,-0.443 0.987,-0.988 0,-0.545 -0.442,-0.989 -0.987,-0.989 -0.545,0 -0.988,0.444 -0.988,0.989 C -0.988,-0.443 -0.545,0 0,0 m 7.262,4.214 c -0.25,0 -0.453,0.203 -0.453,0.453 0,0.249 0.203,0.453 0.453,0.453 0.249,0 0.453,-0.204 0.453,-0.453 0,-0.25 -0.204,-0.453 -0.453,-0.453 m 7.203,3.932 c -0.249,0 -0.452,0.203 -0.452,0.453 0,0.249 0.203,0.452 0.452,0.452 0.25,0 0.453,-0.203 0.453,-0.452 0,-0.25 -0.203,-0.453 -0.453,-0.453 m 3.662,1.442 c 0,0.25 0.203,0.454 0.453,0.454 0.249,0 0.453,-0.204 0.453,-0.454 0,-0.249 -0.204,-0.452 -0.453,-0.452 -0.25,0 -0.453,0.203 -0.453,0.452 M 0,-2.732 c 0.182,0 0.357,0.028 0.521,0.08 l 5.13,-6.168 c 0.126,-0.155 0.314,-0.239 0.508,-0.239 0.066,0 0.133,0.01 0.198,0.031 l 3.053,0.962 6.929,-10.833 1.383,1.343 -2.197,3.434 2.58,3.022 c 0.163,0.192 0.203,0.459 0.103,0.692 l -1.575,3.646 2.175,1.77 c 0.088,0.071 0.139,0.18 0.139,0.293 l 0.01,13.343 c 0.376,0.15 0.642,0.517 0.642,0.944 0,0.563 -0.457,1.02 -1.019,1.02 -0.562,0 -1.019,-0.457 -1.019,-1.02 0,-0.427 0.265,-0.794 0.641,-0.944 l -0.008,-9.605 -1.253,0.322 -1.88,8.413 c 0.256,0.186 0.424,0.486 0.424,0.825 0,0.562 -0.458,1.019 -1.02,1.019 -0.561,0 -1.018,-0.457 -1.018,-1.019 0,-0.515 0.384,-0.938 0.88,-1.006 l 1.928,-8.622 c 0.029,-0.138 0.136,-0.247 0.273,-0.283 L 18.193,-1.742 18.192,-4.52 16.322,-6.04 9.979,8.65 C 9.569,8.482 9.166,8.305 8.768,8.118 L 13.771,-3.469 H 11.918 L 7.992,3.958 C 8.17,4.142 8.28,4.391 8.28,4.667 c 0,0.561 -0.457,1.018 -1.018,1.018 -0.563,0 -1.021,-0.457 -1.021,-1.018 0,-0.562 0.458,-1.02 1.021,-1.02 0.013,0 0.025,0.003 0.038,0.004 l 4.057,-7.675 c 0.065,-0.123 0.193,-0.201 0.334,-0.201 h 2.406 l 2.734,-6.33 L 14.78,-12.958 3.415,4.812 C 2.915,4.418 2.43,4.007 1.96,3.58 L 8.673,-6.913 6.383,-7.634 1.538,-1.808 c 0.132,0.246 0.205,0.524 0.205,0.82 0,0.962 -0.781,1.744 -1.743,1.744 -0.367,0 -0.708,-0.115 -0.988,-0.309 -0.221,-0.274 -0.437,-0.551 -0.647,-0.833 -0.068,-0.188 -0.108,-0.39 -0.108,-0.602 0,-0.961 0.781,-1.744 1.743,-1.744"
             style="fill:#1a64b7;fill-opacity:1;fill-rule:nonzero;stroke:none"
             id="path64" />
        </g>
        <g
           id="g66"
           transform="translate(50.6618,57.0195)">
          <path
             d="m 0,0 c 0.25,0 0.454,-0.203 0.454,-0.453 0,-0.25 -0.204,-0.453 -0.454,-0.453 -0.249,0 -0.452,0.203 -0.452,0.453 C -0.452,-0.203 -0.249,0 0,0 m 1.267,-7.044 c 0.15,0 0.271,-0.122 0.271,-0.271 0,-0.151 -0.121,-0.272 -0.271,-0.272 -0.15,0 -0.273,0.121 -0.273,0.272 0,0.149 0.123,0.271 0.273,0.271 m -2.551,2.893 c -0.151,0 -0.272,0.122 -0.272,0.272 0,0.15 0.121,0.272 0.272,0.272 0.149,0 0.271,-0.122 0.271,-0.272 0,-0.15 -0.122,-0.272 -0.271,-0.272 m 1.002,2.723 V -6.57 l -0.542,0.339 -0.164,1.776 c 0.209,0.108 0.353,0.325 0.353,0.576 0,0.358 -0.292,0.649 -0.649,0.649 -0.36,0 -0.65,-0.291 -0.65,-0.649 0,-0.261 0.155,-0.484 0.376,-0.588 l 0.181,-1.956 c 0.01,-0.09 0.058,-0.168 0.133,-0.215 l 0.962,-0.6 v -3.672 c 0.087,0.01 0.175,0.017 0.263,0.017 0.103,0 0.204,-0.009 0.303,-0.022 v 0.253 l 0.942,0.587 c 0.075,0.047 0.125,0.126 0.132,0.215 l 0.181,1.957 c 0.222,0.103 0.377,0.326 0.377,0.588 0,0.357 -0.291,0.649 -0.649,0.649 -0.358,0 -0.65,-0.292 -0.65,-0.649 0,-0.252 0.146,-0.468 0.355,-0.577 L 0.808,-9.668 0.284,-9.994 v 8.566 c 0.423,0.125 0.736,0.512 0.736,0.975 0,0.562 -0.457,1.019 -1.02,1.019 -0.562,0 -1.019,-0.457 -1.019,-1.019 0,-0.463 0.313,-0.85 0.737,-0.975"
             style="fill:#1a64b7;fill-opacity:1;fill-rule:nonzero;stroke:none"
             id="path68" />
        </g>
        <g
           id="g70"
           transform="translate(75.8083,49.6953)">
          <path
             d="m 0,0 c 0.544,0 0.988,-0.444 0.988,-0.989 0,-0.544 -0.444,-0.988 -0.988,-0.988 -0.546,0 -0.988,0.444 -0.988,0.988 C -0.988,-0.444 -0.546,0 0,0 m -12.212,0.367 c 0.545,0 0.989,-0.444 0.989,-0.989 0,-0.545 -0.444,-0.988 -0.989,-0.988 -0.544,0 -0.988,0.443 -0.988,0.988 0,0.545 0.444,0.989 0.988,0.989 m 7.91,7.126 h 10e-4 C -4.051,7.485 -3.855,7.275 -3.862,7.026 -3.871,6.781 -4.07,6.588 -4.314,6.588 h -0.017 c -0.12,0.004 -0.233,0.055 -0.315,0.143 -0.083,0.089 -0.127,0.204 -0.122,0.325 0.008,0.245 0.206,0.437 0.466,0.437 m -2.969,-4.805 2.675,3.375 c 0.08,-0.022 0.162,-0.038 0.247,-0.041 l 0.035,-0.001 c 0.552,0 1,0.433 1.017,0.986 0.019,0.562 -0.424,1.033 -0.984,1.053 l -0.035,10e-4 c -0.553,0 -1,-0.434 -1.018,-0.986 C -5.341,6.879 -5.29,6.69 -5.192,6.526 L -7.949,3.049 C -8.004,2.978 -8.033,2.89 -8.03,2.802 l 0.128,-3.836 -6.425,-7.915 -0.838,2.799 2.54,3.837 c 0.132,-0.034 0.27,-0.053 0.413,-0.053 0.962,0 1.744,0.783 1.744,1.744 0,0.961 -0.782,1.744 -1.744,1.744 -0.96,0 -1.742,-0.783 -1.742,-1.744 0,-0.334 0.096,-0.646 0.259,-0.911 l -2.742,-4.145 c -0.108,-0.164 -0.139,-0.366 -0.083,-0.554 l 1.184,-3.96 -0.92,-1.133 1.36,-1.322 4.378,5.394 3.37,-0.89 c 0.055,-0.014 0.111,-0.022 0.168,-0.022 0.164,0 0.325,0.061 0.449,0.175 l 5.842,5.4 c 0.211,-0.091 0.445,-0.142 0.689,-0.142 0.961,0 1.743,0.783 1.743,1.743 0,0.962 -0.782,1.745 -1.743,1.745 -0.962,0 -1.744,-0.783 -1.744,-1.745 0,-0.232 0.047,-0.453 0.13,-0.656 l -5.548,-5.127 -2.442,0.645 9.847,12.131 c -0.268,0.652 -0.56,1.291 -0.877,1.916 l -6.543,-8.06 z"
             style="fill:#1a64b7;fill-opacity:1;fill-rule:nonzero;stroke:none"
             id="path72" />
        </g>
        <g
           id="g74"
           transform="translate(26.3356,42.1548)">
          <path
             d="m 0,0 c -0.545,0 -0.988,0.444 -0.988,0.988 0,0.546 0.443,0.989 0.988,0.989 0.546,0 0.988,-0.443 0.988,-0.989 C 0.988,0.444 0.546,0 0,0 m 8.018,-10.963 1.242,1.208 -1.246,0.822 v 3.708 c 0,0.197 -0.089,0.384 -0.241,0.51 L 1.625,0.361 C 1.7,0.556 1.743,0.767 1.743,0.988 1.743,1.95 0.962,2.732 0,2.732 c -0.962,0 -1.744,-0.782 -1.744,-1.744 0,-0.96 0.782,-1.743 1.744,-1.743 0.254,0 0.495,0.056 0.713,0.154 L 6.69,-5.537 v -2.526 l -9.355,6.158 c 0.168,-0.909 0.381,-1.803 0.635,-2.678 l 9.913,-6.525 c 0.043,0.049 0.086,0.099 0.135,0.145"
             style="fill:#1a64b7;fill-opacity:1;fill-rule:nonzero;stroke:none"
             id="path76" />
        </g>
        <g
           id="g78"
           transform="translate(65.6188,38.3906)">
          <path
             d="M 0,0 C -0.067,0.1 -0.094,0.22 -0.071,0.339 -0.031,0.553 0.156,0.708 0.373,0.708 0.401,0.708 0.43,0.705 0.458,0.7 0.576,0.678 0.68,0.61 0.749,0.51 0.816,0.411 0.842,0.291 0.819,0.171 0.773,-0.07 0.534,-0.235 0.29,-0.19 0.171,-0.168 0.068,-0.101 0,0 m 0.375,-0.764 c 0.489,0 0.909,0.349 1.001,0.831 C 1.427,0.334 1.369,0.605 1.216,0.83 1.062,1.055 0.831,1.207 0.563,1.257 0.5,1.269 0.436,1.275 0.373,1.275 c -0.489,0 -0.91,-0.35 -1.001,-0.831 -0.047,-0.248 0.003,-0.497 0.131,-0.712 l -2.224,-2.109 -1.571,0.631 1.07,-1.042 0.458,-0.183 c 0.034,-0.014 0.071,-0.021 0.106,-0.021 0.071,0 0.141,0.027 0.196,0.078 l 2.383,2.261 c 0.083,-0.041 0.17,-0.077 0.265,-0.094 0.062,-0.011 0.125,-0.017 0.189,-0.017"
             style="fill:#1a64b7;fill-opacity:1;fill-rule:nonzero;stroke:none"
             id="path80" />
        </g>
        <g
           id="g82"
           transform="translate(25.4919,49.6953)">
          <path
             d="m 0,0 c 0.545,0 0.988,-0.444 0.988,-0.989 0,-0.544 -0.443,-0.988 -0.988,-0.988 -0.545,0 -0.989,0.444 -0.989,0.988 C -0.989,-0.444 -0.545,0 0,0 M 4.645,6.731 C 4.562,6.643 4.451,6.592 4.329,6.588 H 4.314 C 4.069,6.588 3.87,6.781 3.862,7.025 3.854,7.275 4.05,7.485 4.314,7.493 4.561,7.493 4.759,7.301 4.768,7.055 4.771,6.935 4.727,6.82 4.645,6.731 m 7.566,-8.341 c -0.545,0 -0.988,0.443 -0.988,0.988 0,0.545 0.443,0.989 0.988,0.989 0.545,0 0.988,-0.444 0.988,-0.989 0,-0.545 -0.443,-0.988 -0.988,-0.988 M 0,-2.732 c 0.243,0 0.477,0.051 0.687,0.142 l 5.843,-5.4 c 0.124,-0.114 0.284,-0.175 0.449,-0.175 0.057,0 0.113,0.008 0.168,0.022 l 3.37,0.89 4.373,-5.387 1.358,1.322 -0.913,1.126 1.183,3.96 c 0.056,0.188 0.027,0.39 -0.081,0.554 l -2.744,4.145 c 0.165,0.265 0.261,0.577 0.261,0.911 0,0.961 -0.782,1.744 -1.743,1.744 -0.962,0 -1.744,-0.783 -1.744,-1.744 0,-0.961 0.782,-1.744 1.744,-1.744 0.143,0 0.28,0.019 0.414,0.053 L 15.163,-6.15 14.326,-8.949 7.901,-1.034 8.03,2.802 C 8.032,2.89 8.004,2.977 7.948,3.048 L 5.194,6.531 C 5.29,6.694 5.34,6.88 5.333,7.075 5.315,7.627 4.868,8.061 4.314,8.061 L 4.281,8.06 C 3.72,8.04 3.277,7.569 3.296,7.007 3.313,6.454 3.762,6.021 4.314,6.021 l 0.035,0.001 c 0.085,0.003 0.169,0.02 0.25,0.043 L 7.271,2.688 7.175,-0.14 0.649,7.901 C 0.333,7.274 0.041,6.635 -0.226,5.983 L 9.602,-6.127 7.161,-6.772 1.613,-1.645 c 0.084,0.203 0.131,0.424 0.131,0.656 0,0.962 -0.783,1.745 -1.744,1.745 -0.962,0 -1.744,-0.783 -1.744,-1.745 0,-0.96 0.782,-1.743 1.744,-1.743"
             style="fill:#1a64b7;fill-opacity:1;fill-rule:nonzero;stroke:none"
             id="path84" />
        </g>
        <g
           id="g86"
           transform="translate(58.7839,47.0498)">
          <path
             d="m 0,0 c 0.081,0.09 0.193,0.142 0.314,0.148 h 0.023 c 0.241,0 0.439,-0.188 0.451,-0.43 0.013,-0.25 -0.181,-0.462 -0.43,-0.475 H 0.335 c -0.241,0 -0.44,0.189 -0.451,0.431 C -0.122,-0.206 -0.081,-0.09 0,0 m -2.254,-4.884 2.385,3.581 c 0.065,-0.013 0.135,-0.021 0.204,-0.021 0.016,0 0.034,0.001 0.051,0.002 0.561,0.028 0.996,0.506 0.967,1.067 C 1.327,0.306 0.858,0.74 0.286,0.714 0.014,0.7 -0.236,0.582 -0.419,0.38 -0.603,0.179 -0.695,-0.083 -0.683,-0.354 c 0.011,-0.199 0.076,-0.38 0.183,-0.532 l -2.459,-3.695 c -0.05,-0.074 -0.072,-0.163 -0.062,-0.252 l 0.022,-0.181 0.856,-0.833 z"
             style="fill:#1a64b7;fill-opacity:1;fill-rule:nonzero;stroke:none"
             id="path88" />
        </g>
        <g
           id="g90"
           transform="translate(42.1803,46.293)">
          <path
             d="m 0,0 h -0.023 c -0.249,0.013 -0.443,0.225 -0.431,0.475 0.013,0.241 0.211,0.43 0.452,0.43 L 0.021,0.904 C 0.143,0.898 0.253,0.847 0.335,0.757 0.416,0.667 0.457,0.551 0.45,0.431 0.439,0.189 0.24,0 0,0 m 3.336,-4.243 0.019,0.167 c 0.011,0.089 -0.011,0.178 -0.06,0.252 L 0.834,-0.129 C 0.941,0.022 1.008,0.204 1.018,0.402 1.031,0.674 0.937,0.936 0.754,1.137 0.571,1.339 0.32,1.457 0.049,1.471 -0.516,1.497 -0.991,1.062 -1.02,0.502 c -0.027,-0.561 0.408,-1.04 0.969,-1.067 0.017,-0.001 0.034,-0.002 0.051,-0.002 0.07,0 0.139,0.007 0.205,0.021 L 2.59,-4.127 2.48,-5.076 Z"
             style="fill:#1a64b7;fill-opacity:1;fill-rule:nonzero;stroke:none"
             id="path92" />
        </g>
        <g
           id="g94"
           transform="translate(27.3962,32.8955)">
          <path
             d="m 0,0 c -0.25,0 -0.452,0.203 -0.452,0.453 0,0.25 0.202,0.452 0.452,0.452 0.25,0 0.454,-0.202 0.454,-0.452 C 0.454,0.203 0.25,0 0,0 M 6.258,-4.556 4.311,-3.669 3.805,-1.488 C 3.78,-1.387 3.717,-1.301 3.627,-1.248 L 1.005,0.299 C 1.012,0.35 1.02,0.4 1.02,0.453 1.02,1.015 0.562,1.472 0,1.472 c -0.562,0 -1.02,-0.457 -1.02,-1.019 0,-0.562 0.458,-1.019 1.02,-1.019 0.234,0 0.448,0.081 0.62,0.215 l 2.485,-1.465 0.338,-1.459 -3.862,1.757 C -0.005,-2.224 0.44,-2.913 0.916,-3.577 L 4.338,-5.135 4.017,-5.383 H 2.324 C 2.708,-5.836 3.106,-6.278 3.52,-6.705 h 0.724 c 0.147,0 0.289,0.048 0.404,0.138 l 1.049,0.814 0.561,-0.256 z"
             style="fill:#1a64b7;fill-opacity:1;fill-rule:nonzero;stroke:none"
             id="path96" />
        </g>
        <g
           id="g98"
           transform="translate(51.9196,45.1357)">
          <path
             d="m 0,0 c -0.71,0.692 -1.843,0.692 -2.554,0 l -14.683,-14.283 c -0.356,-0.344 -0.555,-0.817 -0.555,-1.312 v -6.165 c 1.152,-0.87 2.377,-1.651 3.661,-2.333 v 7.725 l 12.855,12.502 12.853,-12.502 v -7.725 c 1.285,0.682 2.51,1.463 3.662,2.333 v 6.165 c 0,0.495 -0.2,0.968 -0.554,1.312 z"
             style="fill:#8f9396;fill-opacity:1;fill-rule:nonzero;stroke:none"
             id="path100" />
        </g>
      </g>
    </g>
  </g>
</svg>
